<svg width="28" height="28" viewBox="0 0 28 28" fill="none" xmlns="http://www.w3.org/2000/svg">
<g clip-path="url(#clip0_270_20)">
<path d="M20.5484 18.1022C22.2429 15.7899 23.0018 12.923 22.6734 10.0752C22.345 7.22734 20.9533 4.60852 18.7769 2.74265C16.6006 0.876788 13.7999 -0.0985179 10.9353 0.0118601C8.07073 0.122238 5.35344 1.31016 3.32708 3.33796C1.30073 5.36577 0.114751 8.08391 0.00642245 10.9486C-0.101906 13.8133 0.875403 16.6132 2.74283 18.7883C4.61025 20.9633 7.23007 22.353 10.0781 22.6795C12.9262 23.0059 15.7925 22.2448 18.1036 20.5487H18.1019C18.1532 20.6187 18.2104 20.6858 18.2734 20.7499L25.0109 27.4874C25.339 27.8158 25.7841 28.0004 26.2484 28.0005C26.7126 28.0007 27.1579 27.8164 27.4862 27.4883C27.8146 27.1602 27.9992 26.715 27.9993 26.2508C27.9995 25.7866 27.8153 25.3413 27.4871 25.0129L20.7496 18.2754C20.6871 18.2121 20.6198 18.1553 20.5484 18.1022ZM20.9999 11.3752C20.9999 12.6391 20.7509 13.8907 20.2672 15.0585C19.7835 16.2263 19.0745 17.2873 18.1808 18.1811C17.287 19.0748 16.2259 19.7838 15.0582 20.2675C13.8904 20.7512 12.6388 21.0002 11.3749 21.0002C10.1109 21.0002 8.85929 20.7512 7.69153 20.2675C6.52378 19.7838 5.46272 19.0748 4.56896 18.1811C3.6752 17.2873 2.96622 16.2263 2.48252 15.0585C1.99882 13.8907 1.74986 12.6391 1.74986 11.3752C1.74986 8.82247 2.76392 6.37431 4.56896 4.56927C6.374 2.76424 8.82215 1.75018 11.3749 1.75018C13.9276 1.75018 16.3757 2.76424 18.1808 4.56927C19.9858 6.37431 20.9999 8.82247 20.9999 11.3752Z" fill="white"/>
<g clip-path="url(#clip1_270_20)">
<path d="M3.5 0C2.57174 0 1.6815 0.368749 1.02513 1.02513C0.368749 1.6815 0 2.57174 0 3.5L0 24.5C0 25.4283 0.368749 26.3185 1.02513 26.9749C1.6815 27.6313 2.57174 28 3.5 28H24.5C25.4283 28 26.3185 27.6313 26.9749 26.9749C27.6313 26.3185 28 25.4283 28 24.5V3.5C28 2.57174 27.6313 1.6815 26.9749 1.02513C26.3185 0.368749 25.4283 0 24.5 0L3.5 0ZM14.875 7.875V13.125H20.125C20.3571 13.125 20.5796 13.2172 20.7437 13.3813C20.9078 13.5454 21 13.7679 21 14C21 14.2321 20.9078 14.4546 20.7437 14.6187C20.5796 14.7828 20.3571 14.875 20.125 14.875H14.875V20.125C14.875 20.3571 14.7828 20.5796 14.6187 20.7437C14.4546 20.9078 14.2321 21 14 21C13.7679 21 13.5454 20.9078 13.3813 20.7437C13.2172 20.5796 13.125 20.3571 13.125 20.125V14.875H7.875C7.64294 14.875 7.42038 14.7828 7.25628 14.6187C7.09219 14.4546 7 14.2321 7 14C7 13.7679 7.09219 13.5454 7.25628 13.3813C7.42038 13.2172 7.64294 13.125 7.875 13.125H13.125V7.875C13.125 7.64294 13.2172 7.42038 13.3813 7.25628C13.5454 7.09219 13.7679 7 14 7C14.2321 7 14.4546 7.09219 14.6187 7.25628C14.7828 7.42038 14.875 7.64294 14.875 7.875Z" fill="white"/>
</g>
</g>
<defs>
<clipPath id="clip0_270_20">
<rect width="28" height="28" fill="white"/>
</clipPath>
<clipPath id="clip1_270_20">
<rect width="28" height="28" fill="white"/>
</clipPath>
</defs>
</svg>
