<svg width="80" height="80" viewBox="0 0 80 80" fill="none" xmlns="http://www.w3.org/2000/svg">
<g clip-path="url(#clip0_286_428)">
<path d="M80 70C80 72.6522 78.9464 75.1957 77.0711 77.0711C75.1957 78.9464 72.6522 80 70 80H10C7.34784 80 4.8043 78.9464 2.92893 77.0711C1.05357 75.1957 0 72.6522 0 70V10C0 7.34784 1.05357 4.8043 2.92893 2.92893C4.8043 1.05357 7.34784 0 10 0L70 0C72.6522 0 75.1957 1.05357 77.0711 2.92893C78.9464 4.8043 80 7.34784 80 10V70ZM57.5 37.5H28.535L39.27 26.77C39.7394 26.3006 40.0032 25.6639 40.0032 25C40.0032 24.3361 39.7394 23.6994 39.27 23.23C38.8006 22.7606 38.1639 22.4968 37.5 22.4968C36.8361 22.4968 36.1994 22.7606 35.73 23.23L20.73 38.23C20.4972 38.4622 20.3125 38.7381 20.1864 39.0418C20.0604 39.3456 19.9955 39.6712 19.9955 40C19.9955 40.3288 20.0604 40.6544 20.1864 40.9582C20.3125 41.2619 20.4972 41.5378 20.73 41.77L35.73 56.77C36.1994 57.2394 36.8361 57.5032 37.5 57.5032C38.1639 57.5032 38.8006 57.2394 39.27 56.77C39.7394 56.3006 40.0032 55.6639 40.0032 55C40.0032 54.3361 39.7394 53.6994 39.27 53.23L28.535 42.5H57.5C58.163 42.5 58.7989 42.2366 59.2678 41.7678C59.7366 41.2989 60 40.663 60 40C60 39.337 59.7366 38.7011 59.2678 38.2322C58.7989 37.7634 58.163 37.5 57.5 37.5Z" fill="white"/>
</g>
<defs>
<clipPath id="clip0_286_428">
<rect width="80" height="80" fill="white"/>
</clipPath>
</defs>
</svg>
