<svg width="267" height="84" viewBox="0 0 267 84" fill="none" xmlns="http://www.w3.org/2000/svg">
<path d="M94.517 51V33.5455H101.506C102.79 33.5455 103.861 33.7358 104.719 34.1165C105.577 34.4972 106.222 35.0256 106.653 35.7017C107.085 36.3722 107.301 37.1449 107.301 38.0199C107.301 38.7017 107.165 39.3011 106.892 39.8182C106.619 40.3295 106.244 40.75 105.767 41.0795C105.295 41.4034 104.756 41.6335 104.148 41.7699V41.9403C104.813 41.9687 105.435 42.1562 106.014 42.5028C106.599 42.8494 107.074 43.3352 107.438 43.9602C107.801 44.5795 107.983 45.3182 107.983 46.1761C107.983 47.1023 107.753 47.929 107.293 48.6562C106.838 49.3778 106.165 49.9489 105.273 50.3693C104.381 50.7898 103.281 51 101.974 51H94.517ZM98.2074 47.983H101.216C102.244 47.983 102.994 47.7869 103.466 47.3949C103.938 46.9972 104.173 46.4687 104.173 45.8097C104.173 45.3267 104.057 44.9006 103.824 44.5312C103.591 44.1619 103.259 43.8722 102.827 43.6619C102.401 43.4517 101.892 43.3466 101.301 43.3466H98.2074V47.983ZM98.2074 40.8494H100.943C101.449 40.8494 101.898 40.7614 102.29 40.5852C102.688 40.4034 103 40.1477 103.227 39.8182C103.46 39.4886 103.577 39.0938 103.577 38.6335C103.577 38.0028 103.352 37.4943 102.903 37.108C102.46 36.7216 101.83 36.5284 101.011 36.5284H98.2074V40.8494ZM116.231 51.2557C114.907 51.2557 113.762 50.9744 112.796 50.4119C111.836 49.8437 111.094 49.054 110.572 48.0426C110.049 47.0256 109.788 45.8466 109.788 44.5057C109.788 43.1534 110.049 41.9716 110.572 40.9602C111.094 39.9432 111.836 39.1534 112.796 38.5909C113.762 38.0227 114.907 37.7386 116.231 37.7386C117.555 37.7386 118.697 38.0227 119.657 38.5909C120.623 39.1534 121.367 39.9432 121.89 40.9602C122.413 41.9716 122.674 43.1534 122.674 44.5057C122.674 45.8466 122.413 47.0256 121.89 48.0426C121.367 49.054 120.623 49.8437 119.657 50.4119C118.697 50.9744 117.555 51.2557 116.231 51.2557ZM116.248 48.4432C116.85 48.4432 117.353 48.2727 117.756 47.9318C118.16 47.5852 118.464 47.1136 118.668 46.517C118.879 45.9205 118.984 45.2415 118.984 44.4801C118.984 43.7188 118.879 43.0398 118.668 42.4432C118.464 41.8466 118.16 41.375 117.756 41.0284C117.353 40.6818 116.85 40.5085 116.248 40.5085C115.64 40.5085 115.129 40.6818 114.714 41.0284C114.305 41.375 113.995 41.8466 113.785 42.4432C113.58 43.0398 113.478 43.7188 113.478 44.4801C113.478 45.2415 113.58 45.9205 113.785 46.517C113.995 47.1136 114.305 47.5852 114.714 47.9318C115.129 48.2727 115.64 48.4432 116.248 48.4432ZM130.95 51.2557C129.626 51.2557 128.481 50.9744 127.515 50.4119C126.555 49.8437 125.813 49.054 125.29 48.0426C124.768 47.0256 124.506 45.8466 124.506 44.5057C124.506 43.1534 124.768 41.9716 125.29 40.9602C125.813 39.9432 126.555 39.1534 127.515 38.5909C128.481 38.0227 129.626 37.7386 130.95 37.7386C132.273 37.7386 133.415 38.0227 134.376 38.5909C135.342 39.1534 136.086 39.9432 136.609 40.9602C137.131 41.9716 137.393 43.1534 137.393 44.5057C137.393 45.8466 137.131 47.0256 136.609 48.0426C136.086 49.054 135.342 49.8437 134.376 50.4119C133.415 50.9744 132.273 51.2557 130.95 51.2557ZM130.967 48.4432C131.569 48.4432 132.072 48.2727 132.475 47.9318C132.879 47.5852 133.183 47.1136 133.387 46.517C133.597 45.9205 133.702 45.2415 133.702 44.4801C133.702 43.7188 133.597 43.0398 133.387 42.4432C133.183 41.8466 132.879 41.375 132.475 41.0284C132.072 40.6818 131.569 40.5085 130.967 40.5085C130.359 40.5085 129.847 40.6818 129.433 41.0284C129.023 41.375 128.714 41.8466 128.504 42.4432C128.299 43.0398 128.197 43.7188 128.197 44.4801C128.197 45.2415 128.299 45.9205 128.504 46.517C128.714 47.1136 129.023 47.5852 129.433 47.9318C129.847 48.2727 130.359 48.4432 130.967 48.4432ZM143.043 47.233L143.052 42.8778H143.58L147.773 37.9091H151.941L146.308 44.4886H145.447L143.043 47.233ZM139.754 51V33.5455H143.384V51H139.754ZM147.935 51L144.083 45.2983L146.504 42.733L152.188 51H147.935ZM173.945 33.5455V51H170.757L163.163 40.0142H163.036V51H159.345V33.5455H162.584L170.118 44.5227H170.271V33.5455H173.945ZM182.84 51.2557C181.516 51.2557 180.371 50.9744 179.406 50.4119C178.445 49.8437 177.704 49.054 177.181 48.0426C176.658 47.0256 176.397 45.8466 176.397 44.5057C176.397 43.1534 176.658 41.9716 177.181 40.9602C177.704 39.9432 178.445 39.1534 179.406 38.5909C180.371 38.0227 181.516 37.7386 182.84 37.7386C184.164 37.7386 185.306 38.0227 186.266 38.5909C187.232 39.1534 187.977 39.9432 188.499 40.9602C189.022 41.9716 189.283 43.1534 189.283 44.5057C189.283 45.8466 189.022 47.0256 188.499 48.0426C187.977 49.054 187.232 49.8437 186.266 50.4119C185.306 50.9744 184.164 51.2557 182.84 51.2557ZM182.857 48.4432C183.46 48.4432 183.962 48.2727 184.366 47.9318C184.769 47.5852 185.073 47.1136 185.278 46.517C185.488 45.9205 185.593 45.2415 185.593 44.4801C185.593 43.7188 185.488 43.0398 185.278 42.4432C185.073 41.8466 184.769 41.375 184.366 41.0284C183.962 40.6818 183.46 40.5085 182.857 40.5085C182.249 40.5085 181.738 40.6818 181.323 41.0284C180.914 41.375 180.604 41.8466 180.394 42.4432C180.19 43.0398 180.087 43.7188 180.087 44.4801C180.087 45.2415 180.19 45.9205 180.394 46.517C180.604 47.1136 180.914 47.5852 181.323 47.9318C181.738 48.2727 182.249 48.4432 182.857 48.4432ZM198.607 37.9091V40.6364H190.724V37.9091H198.607ZM192.513 34.7727H196.144V46.9773C196.144 47.3125 196.195 47.5739 196.298 47.7614C196.4 47.9432 196.542 48.071 196.724 48.1449C196.911 48.2187 197.127 48.2557 197.371 48.2557C197.542 48.2557 197.712 48.2415 197.883 48.2131C198.053 48.179 198.184 48.1534 198.275 48.1364L198.846 50.8381C198.664 50.8949 198.408 50.9602 198.079 51.0341C197.749 51.1136 197.349 51.1619 196.877 51.179C196.002 51.2131 195.235 51.0966 194.576 50.8295C193.923 50.5625 193.414 50.1477 193.05 49.5852C192.687 49.0227 192.508 48.3125 192.513 47.4545V34.7727ZM206.798 51.2557C205.451 51.2557 204.292 50.983 203.32 50.4375C202.354 49.8864 201.61 49.108 201.087 48.1023C200.565 47.0909 200.303 45.8949 200.303 44.5142C200.303 43.1676 200.565 41.9858 201.087 40.9688C201.61 39.9517 202.346 39.1591 203.295 38.5909C204.249 38.0227 205.369 37.7386 206.653 37.7386C207.516 37.7386 208.32 37.8778 209.065 38.1562C209.815 38.429 210.468 38.8409 211.025 39.392C211.587 39.9432 212.025 40.6364 212.337 41.4716C212.65 42.3011 212.806 43.2727 212.806 44.3864V45.3835H201.752V43.1335H209.388C209.388 42.6108 209.275 42.1477 209.048 41.7443C208.82 41.3409 208.505 41.0256 208.102 40.7983C207.704 40.5653 207.241 40.4489 206.712 40.4489C206.161 40.4489 205.673 40.5767 205.246 40.8324C204.826 41.0824 204.496 41.4205 204.258 41.8466C204.019 42.267 203.897 42.7358 203.891 43.2528V45.392C203.891 46.0398 204.011 46.5994 204.249 47.071C204.494 47.5426 204.837 47.9062 205.281 48.1619C205.724 48.4176 206.249 48.5455 206.857 48.5455C207.261 48.5455 207.63 48.4886 207.965 48.375C208.3 48.2614 208.587 48.0909 208.826 47.8636C209.065 47.6364 209.246 47.358 209.371 47.0284L212.729 47.25C212.559 48.0568 212.21 48.7614 211.681 49.3636C211.158 49.9602 210.482 50.4261 209.653 50.7614C208.829 51.0909 207.877 51.2557 206.798 51.2557Z" fill="#F6732F"/>
<g clip-path="url(#clip0_270_30)">
<path fill-rule="evenodd" clip-rule="evenodd" d="M20.7132 0.0339167H78.8011V70.4782C78.6993 72.2009 76.4868 72.2419 74.0911 72.1325H19.8988C14.4694 72.6316 16.4036 79.9118 19.8988 79.529H76.2968V77.0202H81V81.2722C81 81.9974 80.714 82.6929 80.2049 83.2057C79.6958 83.7185 79.0053 84.0066 78.2853 84.0066H20.1363C11.9922 84.1228 9.31144 83.6853 9.31144 77.6833V68.988H3.09476C1.35735 68.988 0 67.3952 0 65.4402C0 63.4851 1.35735 61.8923 3.09476 61.8923H9.31144V56.2322H3.09476C1.35735 56.2322 0 54.6462 0 52.6843C0 50.7224 1.35735 49.1433 3.09476 49.1433H9.31144V43.4763H3.09476C1.35735 43.4763 0 41.8904 0 39.9353C0 37.9802 1.35735 36.3874 3.09476 36.3874H9.31144V30.7615H3.09476C1.35735 30.7615 0 29.1413 0 27.1794C0 25.2175 1.35735 23.6316 3.09476 23.6316H9.31144V17.9714H3.09476C1.35735 17.9714 0 16.406 0 14.4304C0 12.4548 1.35735 10.8825 3.09476 10.8825H9.31144C9.29786 1.81126 9.18249 -0.321552 20.7132 0.0339167ZM31.6195 28.6492C31.2055 28.6492 30.8085 28.4835 30.5158 28.1886C30.223 27.8938 30.0586 27.4939 30.0586 27.0769C30.0586 26.6599 30.223 26.26 30.5158 25.9651C30.8085 25.6703 31.2055 25.5046 31.6195 25.5046H54.5656C54.9796 25.5046 55.3766 25.6703 55.6693 25.9651C55.9621 26.26 56.1265 26.6599 56.1265 27.0769C56.1265 27.4939 55.9621 27.8938 55.6693 28.1886C55.3766 28.4835 54.9796 28.6492 54.5656 28.6492H31.6195ZM31.6195 20.364C31.2224 20.3376 30.8502 20.1602 30.5782 19.8676C30.3062 19.575 30.1549 19.1891 30.1549 18.7883C30.1549 18.3875 30.3062 18.0017 30.5782 17.7091C30.8502 17.4165 31.2224 17.239 31.6195 17.2126H58.6851C58.8992 17.1984 59.1139 17.2286 59.316 17.3014C59.518 17.3741 59.7031 17.4879 59.8597 17.6356C60.0163 17.7833 60.1412 17.9618 60.2266 18.1601C60.3119 18.3584 60.356 18.5722 60.356 18.7883C60.356 19.0044 60.3119 19.2182 60.2266 19.4165C60.1412 19.6148 60.0163 19.7933 59.8597 19.941C59.7031 20.0887 59.518 20.2025 59.316 20.2752C59.1139 20.348 58.8992 20.3782 58.6851 20.364H31.6195ZM27.6153 10.2536H62.6961C63.2944 10.2572 63.8672 10.4982 64.2902 10.9243C64.7133 11.3505 64.9525 11.9274 64.9561 12.53V33.3659C64.9508 33.9687 64.7112 34.5453 64.2887 34.9721C63.8662 35.399 63.2945 35.642 62.6961 35.6492H27.6153C27.0159 35.6455 26.4421 35.4036 26.0188 34.976C25.5956 34.5484 25.3571 33.9698 25.3553 33.3659V12.4958C25.366 11.8986 25.6086 11.3294 26.0311 10.9102C26.4536 10.491 27.0223 10.2553 27.6153 10.2536Z" fill="#F6732F"/>
</g>
<defs>
<clipPath id="clip0_270_30">
<rect width="81" height="84" fill="white"/>
</clipPath>
</defs>
</svg>
