<svg width="30" height="31" viewBox="0 0 30 31" fill="none" xmlns="http://www.w3.org/2000/svg">
<g clip-path="url(#clip0_270_93)">
<path d="M25.3088 1.74062L25.5881 1.46124C25.7984 1.25109 26.048 1.08441 26.3227 0.970716C26.5974 0.857028 26.8918 0.798558 27.1891 0.798645C27.4864 0.798732 27.7808 0.857375 28.0554 0.971224C28.33 1.08507 28.5795 1.2519 28.7897 1.46218C28.9998 1.67246 29.1665 1.92207 29.2802 2.19677C29.3939 2.47146 29.4524 2.76586 29.4523 3.06315C29.4522 3.36045 29.3936 3.65481 29.2797 3.92944C29.1659 4.20407 28.999 4.45359 28.7888 4.66374L28.5094 4.94124C28.9873 5.47723 29.2421 6.17573 29.2215 6.89354C29.2009 7.61136 28.9066 8.29412 28.3988 8.80187L9.10126 28.1012C8.98062 28.2212 8.8296 28.3062 8.66438 28.3469L1.16438 30.2219C1.00743 30.2609 0.843036 30.2588 0.68718 30.2155C0.531325 30.1723 0.389309 30.0894 0.274938 29.9751C0.160568 29.8607 0.0777325 29.7187 0.0344848 29.5628C-0.00876281 29.407 -0.0109517 29.2426 0.028131 29.0856L1.90313 21.5856C1.94416 21.4211 2.02904 21.2707 2.14876 21.1506L20.2275 3.07187C20.0467 2.94461 19.8267 2.88535 19.6065 2.90457C19.3862 2.92378 19.1798 3.02023 19.0238 3.17687L12.8513 9.35124C12.7641 9.43841 12.6606 9.50755 12.5467 9.55472C12.4328 9.6019 12.3108 9.62618 12.1875 9.62618C12.0642 9.62618 11.9422 9.6019 11.8283 9.55472C11.7144 9.50755 11.6109 9.43841 11.5238 9.35124C11.4366 9.26408 11.3674 9.1606 11.3203 9.04671C11.2731 8.93283 11.2488 8.81076 11.2488 8.68749C11.2488 8.56422 11.2731 8.44216 11.3203 8.32827C11.3674 8.21439 11.4366 8.11091 11.5238 8.02374L17.7 1.85124C18.2081 1.34315 18.8914 1.04878 19.6096 1.02856C20.3279 1.00834 21.0266 1.26379 21.5625 1.74249C22.0777 1.28206 22.7443 1.02739 23.4353 1.02704C24.1262 1.0267 24.7931 1.28071 25.3088 1.74062Z" fill="#F6732F"/>
</g>
<defs>
<clipPath id="clip0_270_93">
<rect width="30" height="30" fill="white" transform="translate(0 0.25)"/>
</clipPath>
</defs>
</svg>
