<svg width="30" height="31" viewBox="0 0 30 31" fill="none" xmlns="http://www.w3.org/2000/svg">
<g clip-path="url(#clip0_270_87)">
<path d="M4.6875 2.125C4.19022 2.125 3.71331 2.32254 3.36167 2.67417C3.01004 3.02581 2.8125 3.50272 2.8125 4V5.875C2.8125 6.37228 3.01004 6.84919 3.36167 7.20083C3.71331 7.55246 4.19022 7.75 4.6875 7.75H5.625V24.625C5.625 25.6196 6.02009 26.5734 6.72335 27.2766C7.42661 27.9799 8.38044 28.375 9.375 28.375H20.625C21.6196 28.375 22.5734 27.9799 23.2766 27.2766C23.9799 26.5734 24.375 25.6196 24.375 24.625V7.75H25.3125C25.8098 7.75 26.2867 7.55246 26.6383 7.20083C26.99 6.84919 27.1875 6.37228 27.1875 5.875V4C27.1875 3.50272 26.99 3.02581 26.6383 2.67417C26.2867 2.32254 25.8098 2.125 25.3125 2.125H18.75C18.75 1.62772 18.5525 1.15081 18.2008 0.799175C17.8492 0.447544 17.3723 0.25 16.875 0.25L13.125 0.25C12.6277 0.25 12.1508 0.447544 11.7992 0.799175C11.4475 1.15081 11.25 1.62772 11.25 2.125H4.6875ZM10.3125 9.625C10.5611 9.625 10.7996 9.72377 10.9754 9.89959C11.1512 10.0754 11.25 10.3139 11.25 10.5625V23.6875C11.25 23.9361 11.1512 24.1746 10.9754 24.3504C10.7996 24.5262 10.5611 24.625 10.3125 24.625C10.0639 24.625 9.8254 24.5262 9.64959 24.3504C9.47377 24.1746 9.375 23.9361 9.375 23.6875V10.5625C9.375 10.3139 9.47377 10.0754 9.64959 9.89959C9.8254 9.72377 10.0639 9.625 10.3125 9.625ZM15 9.625C15.2486 9.625 15.4871 9.72377 15.6629 9.89959C15.8387 10.0754 15.9375 10.3139 15.9375 10.5625V23.6875C15.9375 23.9361 15.8387 24.1746 15.6629 24.3504C15.4871 24.5262 15.2486 24.625 15 24.625C14.7514 24.625 14.5129 24.5262 14.3371 24.3504C14.1613 24.1746 14.0625 23.9361 14.0625 23.6875V10.5625C14.0625 10.3139 14.1613 10.0754 14.3371 9.89959C14.5129 9.72377 14.7514 9.625 15 9.625ZM20.625 10.5625V23.6875C20.625 23.9361 20.5262 24.1746 20.3504 24.3504C20.1746 24.5262 19.9361 24.625 19.6875 24.625C19.4389 24.625 19.2004 24.5262 19.0246 24.3504C18.8488 24.1746 18.75 23.9361 18.75 23.6875V10.5625C18.75 10.3139 18.8488 10.0754 19.0246 9.89959C19.2004 9.72377 19.4389 9.625 19.6875 9.625C19.9361 9.625 20.1746 9.72377 20.3504 9.89959C20.5262 10.0754 20.625 10.3139 20.625 10.5625Z" fill="#F6732F"/>
</g>
<defs>
<clipPath id="clip0_270_87">
<rect width="30" height="30" fill="white" transform="translate(0 0.25)"/>
</clipPath>
</defs>
</svg>
